<svg width="26" height="25" viewBox="0 0 26 25" fill="none" xmlns="http://www.w3.org/2000/svg">
<path fill-rule="evenodd" clip-rule="evenodd" d="M22.0977 11.5C22.0977 17.299 17.3966 22 11.5977 22C5.79867 22 1.09766 17.299 1.09766 11.5C1.09766 5.70101 5.79867 1 11.5977 1C17.3966 1 22.0977 5.70101 22.0977 11.5ZM19.7294 19.6317C17.6483 21.7128 14.7733 23 11.5977 23C5.24638 23 0.0976562 17.8513 0.0976562 11.5C0.0976562 5.14873 5.24638 0 11.5977 0C17.9489 0 23.0977 5.14873 23.0977 11.5C23.0977 14.3156 22.0858 16.8949 20.4059 18.894L25.8048 24.2929L25.0977 25L19.7294 19.6317Z" fill="white"/>
</svg>
